<svg id="Calque_1" data-name="Calque 1" xmlns="http://www.w3.org/2000/svg" xmlns:xlink="http://www.w3.org/1999/xlink" viewBox="0 0 423.57 423.57"><defs><style>.cls-1{fill:#f2c7c1;}.cls-2{fill:#f80;}.cls-3{fill:#08f;}.cls-4{fill:#45cdff;}.cls-5{fill:#a33aaa;}.cls-6{fill:#25f;}.cls-7{fill:#1f94d2;}.cls-8{fill:#fb0;}.cls-9{fill:url(#linear-gradient);}.cls-10{fill:url(#linear-gradient-2);}.cls-11{fill:url(#linear-gradient-3);}.cls-12{fill:url(#linear-gradient-4);}.cls-13{fill:url(#linear-gradient-5);}.cls-14,.cls-15,.cls-16{opacity:0.8;}.cls-14{fill:url(#linear-gradient-6);}.cls-15{fill:url(#linear-gradient-7);}.cls-16{fill:url(#linear-gradient-8);}.cls-17{fill:#65c;}.cls-18{fill:#66b8ff;}.cls-19,.cls-20,.cls-21{opacity:0.5;}.cls-19{fill:url(#linear-gradient-9);}.cls-20{fill:url(#linear-gradient-10);}.cls-21{fill:url(#linear-gradient-11);}.cls-22{fill:#fff;}</style><linearGradient id="linear-gradient" x1="-5573.71" y1="15919.22" x2="-5573.01" y2="15920.5" gradientTransform="translate(-5327.59 16033.68) rotate(180)" gradientUnits="userSpaceOnUse"><stop offset="0" stop-color="#26a4df" stop-opacity="0"/><stop offset="1" stop-color="#26a4df"/></linearGradient><linearGradient id="linear-gradient-2" x1="-5566.21" y1="15933.98" x2="-5564.76" y2="15936.63" xlink:href="#linear-gradient"/><linearGradient id="linear-gradient-3" x1="-5561.5" y1="15942.25" x2="-5560.8" y2="15943.53" xlink:href="#linear-gradient"/><linearGradient id="linear-gradient-4" x1="-5542.72" y1="15970.22" x2="-5541.98" y2="15971.58" xlink:href="#linear-gradient"/><linearGradient id="linear-gradient-5" x1="-5503" y1="16012.98" x2="-5502.63" y2="16013.66" xlink:href="#linear-gradient"/><linearGradient id="linear-gradient-6" x1="-5542.98" y1="15969.63" x2="-5542.39" y2="15970.89" gradientTransform="translate(-5327.59 16033.68) rotate(180)" gradientUnits="userSpaceOnUse"><stop offset="0" stop-color="#004793"/><stop offset="1" stop-color="#004793" stop-opacity="0"/></linearGradient><linearGradient id="linear-gradient-7" x1="-5533.08" y1="15982.33" x2="-5533.08" y2="15982.34" xlink:href="#linear-gradient-6"/><linearGradient id="linear-gradient-8" x1="-5503.31" y1="16012.66" x2="-5503.16" y2="16012.98" xlink:href="#linear-gradient-6"/><linearGradient id="linear-gradient-9" x1="-5573.42" y1="15919.33" x2="-5573.69" y2="15919.43" gradientTransform="translate(-5327.59 16033.68) rotate(180)" gradientUnits="userSpaceOnUse"><stop offset="0" stop-color="#1f94d2" stop-opacity="0"/><stop offset="1" stop-color="#1f94d2"/></linearGradient><linearGradient id="linear-gradient-10" x1="-5565.36" y1="15934.12" x2="-5566.26" y2="15934.44" xlink:href="#linear-gradient-9"/><linearGradient id="linear-gradient-11" x1="-5561.02" y1="15942.3" x2="-5561.56" y2="15942.49" xlink:href="#linear-gradient-9"/></defs><path class="cls-1" d="M51.78,228.7l.34.28-.13-.09Z"/><path class="cls-1" d="M193.42,292.74c.69.35,1.39.71,2.1,1.05l-1.07-.51Z"/><path class="cls-1" d="M245.75,113.67c.27.6.55,1.18.81,1.76-.35-.75-.72-1.52-1.08-2.28C245.57,113.33,245.67,113.5,245.75,113.67Z"/><path class="cls-1" d="M239.05,100.49c.21.38.43.76.61,1.15-.41-.77-.82-1.54-1.24-2.3L237.15,97c.65,1.12,1.27,2.26,1.88,3.38A.25.25,0,0,1,239.05,100.49Z"/><path class="cls-1" d="M234,91.6c.14.25.29.49.42.74-.42-.72-.86-1.45-1.29-2.17,0,0,0,0,.06.06s0,0,0,0Z"/><path class="cls-1" d="M215.74,64.24c-.5-.69-1-1.36-1.53-2,.55.73,1.1,1.44,1.64,2.17Z"/><path class="cls-1" d="M205.5,51.37c.16.16.29.33.43.5.35.4.68.81,1,1.22C206.46,52.5,206,51.94,205.5,51.37Z"/><rect class="cls-1" x="205.48" y="51.34" width="0.01" height="0.01"/><path class="cls-1" d="M175.82,21l-1-.88.53.45c.18.15.37.31.55.48Z"/><path class="cls-2" d="M238.64,0H439.5c50.69,74.33,49.32,183.47,141.86,224.45,4,1.76,8,3.41,12,5V347.2c-100.36-51.73-81.83-189.87-167.5-257-40.87-32-95.61-26.95-140.7-49.06C266.11,31.75,250.79,17.09,238.64,0Z"/><path class="cls-3" d="M216,64.48C226.83,77.41,239.88,88.4,255.46,96c45.08,22.11,99.84,17,140.7,49.06,85.67,67.17,95.42,153.11,197.23,202.22v13.9c-2.22-3-11.88-5.27-15.11-6.68q-12.93-5.67-25.86-11.3-17.64-7.74-35.33-15.39-22.39-9.7-44.88-19.22C412,283.15,354.27,259,311.71,207.09a383.81,383.81,0,0,1-30-42.38c-10.17-16.58-19.52-33.72-30.11-50.05a224.4,224.4,0,0,0-18.33-24.38s0,0,0,0q-1.78-3-3.67-6c-.62-1-1.25-2-1.9-3q-3.56-5.52-7.46-11c-.6-.88-1.22-1.73-1.85-2.59s-1.09-1.49-1.66-2.25C216.45,65.15,216.19,64.82,216,64.48Z"/><path class="cls-4" d="M51.78,228.7l.34.28-.13-.09Z"/><path class="cls-5" d="M-158,19.24V0H-9.29c43.78,30.4,78.84,78,96.59,122.21,4.45,11.1,8.41,22.15,12.23,33l2,5.69q2.48,7.14,5,14.19c.54,1.55,1.1,3.11,1.65,4.66s1,2.89,1.57,4.33c.45,1.25.91,2.49,1.38,3.74.7,1.88,1.39,3.75,2.11,5.6.18.48.35.94.54,1.4.54,1.43,1.11,2.85,1.68,4.26a4.68,4.68,0,0,0,.18.48c.69,1.73,1.39,3.46,2.11,5.16.31.74.61,1.48.93,2.21q.93,2.2,1.9,4.38c.17.39.34.79.52,1.19q1.67,3.74,3.45,7.39c.34.71.69,1.41,1,2.11s.66,1.33,1,2c.67,1.34,1.36,2.64,2.06,3.95a1.59,1.59,0,0,0,.14.26.09.09,0,0,0,0,.06l1.12,2.06c.57,1,1.13,2,1.73,3.06.42.74.84,1.46,1.28,2.19.75,1.28,1.52,2.53,2.31,3.79.62,1,1.24,2,1.89,2.94.38.6.78,1.19,1.18,1.78,1.77,2.63,3.62,5.22,5.56,7.74l1.31,1.69c.62.78,1.24,1.56,1.87,2.32,1,1.2,2,2.41,3.05,3.58.39.45.77.88,1.18,1.32.56.63,1.15,1.27,1.73,1.9,23.44,26.49,36.39,61.4,50.22,97.7,19.53,51.17,93.3-7.57,182.17,69H262.21c-69.68-54.75-135.43-20.91-146.79-68.53q-1.68-7.05-3.35-14C101.66,274,93,205.77,25.34,163-14.8,137.54-57.53,115.83-94.43,85.58-118.2,66.09-138.39,42.91-158,19.24Z"/><path class="cls-4" d="M193.42,292.74c.69.35,1.39.71,2.1,1.05l-1.07-.51Z"/><path class="cls-6" d="M-9.29,0H65.52C76.31,0,88.57,20.55,94,28.06c27.32,38.11,32.43,88.64,65.15,123.33,20,21.17,44.4,35.45,67.27,53,59.34,45.54,76.79,89.92,149.5,108.75,8,2.05,18.69,2.9,31.24,3,2,.59,4.06,1.17,6.09,1.73.8.23,1.62.44,2.43.66,3.36.93,6.76,1.8,10.15,2.66,2.26.58,4.51,1.13,6.78,1.67,1.14.28,2.27.56,3.41.82q5.11,1.22,10.24,2.38c2.29.53,4.56,1,6.84,1.53l11.46,2.52c13.3,2.92,26.61,5.81,39.78,9.07,1.14.28,2.27.55,3.4.84,3,.77,6,1.55,9,2.37,1.51.39,3,.8,4.48,1.22,3,.85,6,1.72,9,2.65.77.22,1.53.46,2.3.69l2,.64,3.07,1c1.1.35,2.19.72,3.29,1.09l1.27.42,3,1.05,2.56.91c1.58.56,3.16,1.16,4.75,1.75,1.41.54,2.81,1.08,4.21,1.64s2.69,1.07,4,1.64c1.73.71,3.47,1.45,5.19,2.21q7,3.07,13.87,6.6c4.65,2.41,9.16,5,13.57,7.7v55.73H502.66c-27.25-25.08-53.83-51-87-68.1C348.88,326.82,270.36,327.1,202,296.82l-1.58-.72c-.48-.21-.95-.43-1.43-.66-.27-.11-.54-.25-.8-.37-.86-.4-1.72-.81-2.55-1.22,0,0-.07,0-.09-.06-.71-.34-1.41-.7-2.1-1.05l-.24-.12-.25-.12-.74-.38c-.45-.23-.9-.46-1.33-.7-.91-.48-1.8-1-2.68-1.47s-1.55-.86-2.31-1.3a5.06,5.06,0,0,1-.44-.26l-.47-.27-.36-.21-.62-.37-.67-.41-1-.6-.71-.43c-.71-.45-1.43-.89-2.11-1.35-.16-.09-.31-.18-.47-.29l-1-.67q-2.5-1.65-4.86-3.37c-.2-.13-.38-.28-.58-.42-.38-.26-.77-.55-1.14-.83l-.47-.36c-.48-.35-.94-.7-1.39-1.07a2.86,2.86,0,0,1-.3-.22l-.11-.09c-.34-.26-.68-.52-1-.8-.49-.37-1-.75-1.43-1.14-.61-.49-1.21-1-1.81-1.5-.86-.72-1.7-1.45-2.53-2.19-.4-.34-.78-.68-1.16-1l-.94-.85-.25-.22-.12-.12c-.67-.62-1.32-1.24-2-1.86s-1.5-1.48-2.23-2.23l-.5-.5c-.2-.19-.38-.39-.55-.57-.58-.58-1.14-1.17-1.69-1.77s-1.17-1.27-1.73-1.9c-.41-.44-.79-.87-1.18-1.32-1-1.17-2.06-2.38-3.05-3.58-.63-.76-1.25-1.54-1.87-2.32l-1.31-1.69c-1.94-2.52-3.79-5.11-5.56-7.74-.4-.59-.8-1.18-1.18-1.78q-1-1.45-1.89-2.94c-.79-1.26-1.56-2.51-2.31-3.79-.44-.73-.86-1.45-1.28-2.19-.6-1-1.16-2-1.73-3.06l-1.12-2.06a.09.09,0,0,1,0-.06,1.59,1.59,0,0,1-.14-.26c-.7-1.31-1.39-2.61-2.06-3.95-.35-.66-.68-1.32-1-2s-.7-1.4-1-2.11q-1.78-3.66-3.45-7.39c-.18-.4-.35-.8-.52-1.19q-1-2.17-1.9-4.38c-.32-.73-.62-1.47-.93-2.21-.71-1.72-1.41-3.43-2.11-5.16a4.68,4.68,0,0,1-.18-.48q-.85-2.11-1.68-4.26c-.19-.46-.36-.92-.54-1.4-.72-1.85-1.41-3.72-2.11-5.6-.47-1.25-.93-2.49-1.38-3.74-.53-1.44-1-2.88-1.57-4.33s-1.11-3.11-1.65-4.66q-2.49-7-5-14.19l-2-5.69c-3.82-10.88-7.78-21.93-12.23-33C69.55,77.94,34.49,30.38-9.29,0Z"/><path class="cls-7" d="M193.42,292.74c.69.35,1.39.71,2.1,1.05l-1.07-.51Z"/><path class="cls-7" d="M245.48,113.15c.09.18.19.35.27.52.27.6.55,1.18.81,1.76C246.21,114.68,245.84,113.91,245.48,113.15Z"/><path class="cls-7" d="M238.42,99.34c.21.36.41.73.61,1.08a.25.25,0,0,1,0,.07c.21.38.43.76.61,1.15C239.25,100.87,238.84,100.1,238.42,99.34Z"/><path class="cls-7" d="M233.17,90.17s0,0,.06.06,0,0,0,0L234,91.6c.14.25.29.49.42.74C234,91.62,233.6,90.89,233.17,90.17Z"/><path class="cls-7" d="M214.21,62.19c.55.73,1.1,1.44,1.64,2.17l-.11-.12C215.24,63.55,214.72,62.88,214.21,62.19Z"/><rect class="cls-7" x="205.48" y="51.34" width="0.01" height="0.01"/><path class="cls-6" d="M-107.17,135.2c1.31,1.17,2.63,2.33,4,3.45q1.23,1.07,2.46,2.1c1.46,1.25,2.94,2.47,4.42,3.68q1.85,1.51,3.71,3l2.81,2.19c1.39,1.07,2.77,2.12,4.17,3.14.74.56,1.48,1.09,2.22,1.62.89.64,1.78,1.29,2.68,1.91,1.15.8,2.3,1.61,3.46,2.39,33.15,22.4,70.52,37.22,106,55.33.94.48,1.86,1,2.77,1.46.2.1.41.21.61.33.92.5,1.82,1,2.72,1.51.67.39,1.35.77,2,1.17s1.22.72,1.82,1.11c.33.18.66.39,1,.6,1.15.72,2.27,1.43,3.36,2.18.26.16.51.33.76.5.41.27.8.54,1.18.81l1.29.89.8.59c1.47,1.05,2.89,2.12,4.28,3.22l.46.35.21.19.13.09.23.18,1.45,1.18.16.13c.53.44,1,.89,1.57,1.34l2.15,1.88c.21.19.44.39.63.58.89.8,1.75,1.6,2.58,2.41l.83.8c.34.34.69.67,1,1l.4.41.57.59c.61.61,1.2,1.23,1.78,1.86.45.48.89.94,1.31,1.41.08.1.17.19.25.28l.49.56c.7.78,1.39,1.57,2,2.36.23.26.45.51.66.78.63.76,1.26,1.53,1.87,2.29l.48.61.31.4c.4.5.78,1,1.16,1.52s.69.91,1,1.36l.75,1c.48.66.94,1.32,1.4,2,.19.26.36.51.53.77.75,1.09,1.48,2.17,2.18,3.26.32.49.62,1,.94,1.47s.56.92.85,1.39.52.84.77,1.28.5.81.73,1.22.64,1.1,1,1.65c.2.36.4.7.59,1.06s.4.7.58,1.06c.33.58.65,1.16,1,1.75l.91,1.74c.36.68.7,1.35,1,2,.47.95,1,1.9,1.4,2.86.27.56.54,1.13.8,1.7s.61,1.3.91,2c.08.18.16.33.23.51s.2.42.29.63.3.69.45,1,.31.73.47,1.08.42,1,.62,1.47.33.78.49,1.17.41,1,.61,1.47.42,1,.63,1.57.52,1.28.77,1.94c.18.49.38,1,.57,1.49s.4,1.07.6,1.61c.12.3.23.61.35.93.62,1.68,1.22,3.39,1.8,5.1.14.35.26.69.36,1,.07.19.13.39.19.57.15.44.3.87.44,1.31.1.27.19.54.27.8l.24.72c.26.8.51,1.59.76,2.4.16.46.31.92.45,1.4.11.31.2.63.29.95.16.49.32,1,.46,1.46a1.13,1.13,0,0,1,0,.15c.77,2.51,1.52,5,2.23,7.59.27.9.5,1.78.76,2.68q.75,2.69,1.46,5.4c.24.91.49,1.81.71,2.72q1,3.84,2,7.73c.27,1.08.55,2.17.81,3.25.22.91.45,1.83.67,2.76l.06.2c.21.85.4,1.7.62,2.56q1.68,7,3.35,14c11.36,47.62,77.11,13.78,146.79,68.53H24c11.55-44.3,21.49-84.52-7-129.67-31.51-49.84-83.05-84.12-111.64-136A183.36,183.36,0,0,1-107.17,135.2Z"/><path class="cls-8" d="M65.52,0H147.9q6.12,3.9,12,8.25l2.79,2.07L166,12.89q1,.82,2.1,1.68c1.13.91,2.27,1.83,3.4,2.78.61.49,1.2,1,1.8,1.51s1,.84,1.49,1.28l1,.88.08.05c1.6,1.42,3.2,2.84,4.77,4.28,1.11,1,2.2,2,3.28,3.08l1.23,1.17c.46.45.94.9,1.4,1.36,2,1.93,3.92,3.9,5.85,5.88,1,1.08,2.09,2.17,3.1,3.27.78.83,1.55,1.66,2.32,2.51l.36.39c.19.21.38.43.58.64q1.89,2.12,3.75,4.23c1,1.15,2,2.3,2.94,3.46v0h0c.47.57,1,1.13,1.44,1.72.78.93,1.54,1.87,2.31,2.81.3.37.6.74.89,1.12l.35.42,2.06,2.6,1.66,2.15c.51.69,1,1.36,1.53,2l.11.12s0,0,0,0l.06.07,0,0c.24.34.5.67.74,1,.57.76,1.11,1.5,1.66,2.25s1.25,1.71,1.85,2.59q3.9,5.44,7.46,11c.65,1,1.28,2,1.9,3q1.89,3,3.67,6s0,0-.06-.06c.43.72.87,1.45,1.29,2.17a.26.26,0,0,0,.07.11c.88,1.53,1.76,3.06,2.62,4.59l1.27,2.3c.42.76.83,1.53,1.24,2.3l.62,1.14c.2.39.4.78.61,1.15.39.77.79,1.53,1.19,2.3s.77,1.54,1.16,2.31.76,1.53,1.13,2.3l1.11,2.29v0c.36.76.73,1.53,1.08,2.28s.7,1.53,1.05,2.3.68,1.53,1,2.29q1.51,3.44,2.88,6.84C280,197.88,288.33,267,366.17,301.49c1.26.55,2.5,1.1,3.75,1.62.9.39,1.8.76,2.69,1.13l3.25,1.32,1.81.71,1.44.55,1.52.58c.34.14.7.27,1.05.4q3.13,1.17,6.3,2.27c.33.12.65.24,1,.34l.68.24,2.62.89,3.31,1.09c.75.25,1.52.5,2.28.73l1,.31.75.24c2.51.78,5,1.55,7.55,2.28-12.55-.14-23.28-1-31.24-3-72.71-18.83-90.16-63.21-149.5-108.75-22.87-17.56-47.27-31.84-67.27-53C126.4,116.7,121.29,66.17,94,28.06,88.57,20.55,76.31,0,65.52,0Z"/><path class="cls-9" d="M245.48,113.15c.09.18.19.35.27.52.27.6.55,1.18.81,1.76C246.21,114.68,245.84,113.91,245.48,113.15Z"/><path class="cls-10" d="M237.15,97c.65,1.12,1.27,2.26,1.88,3.38a.25.25,0,0,1,0,.07c.21.38.43.76.61,1.15-.41-.77-.82-1.54-1.24-2.3Z"/><path class="cls-11" d="M233.17,90.17s0,0,.06.06,0,0,0,0L234,91.6c.14.25.29.49.42.74C234,91.62,233.6,90.89,233.17,90.17Z"/><path class="cls-12" d="M214.21,62.19c.55.73,1.1,1.44,1.64,2.17l-.11-.12C215.24,63.55,214.72,62.88,214.21,62.19Z"/><path class="cls-13" d="M174.82,20.14l.53.45c.18.15.37.31.55.48l-.08-.05Z"/><path class="cls-5" d="M147.9,0h90.74c12.15,17.11,27.47,31.77,46.55,41.13,45.09,22.11,99.83,17,140.7,49.06,85.67,67.16,67.14,205.3,167.5,257v.11c-101.81-49.11-111.56-135-197.23-202.22C355.3,113,300.54,118.14,255.46,96,239.88,88.4,226.83,77.41,216,64.48l0,0-.06-.07s0,0,0,0c-.54-.73-1.09-1.44-1.64-2.17L212.55,60l-2.06-2.6-.35-.42c-.29-.38-.59-.75-.89-1.12-.74-.94-1.52-1.89-2.31-2.81-.33-.41-.66-.82-1-1.22-.14-.17-.27-.34-.43-.5v0h0c-1-1.16-1.95-2.31-2.94-3.46q-1.86-2.12-3.75-4.23c-.2-.21-.39-.43-.58-.64l-.36-.39c-.77-.85-1.54-1.68-2.32-2.51q-1.51-1.65-3.1-3.27c-1.93-2-3.87-4-5.85-5.88-.46-.46-.94-.91-1.4-1.36L184,28.43q-1.62-1.58-3.28-3.08c-1.57-1.44-3.17-2.86-4.77-4.28-.18-.17-.37-.33-.55-.48l-.53-.45c-.5-.44-1-.86-1.49-1.28s-1.19-1-1.8-1.51c-1.13-1-2.27-1.87-3.4-2.78q-1-.87-2.1-1.68l-3.34-2.59L159.9,8.23Q154,3.89,147.9,0Z"/><path class="cls-14" d="M215.74,64.24c-.5-.69-1-1.36-1.53-2,.55.73,1.1,1.44,1.64,2.17Z"/><rect class="cls-15" x="205.48" y="51.34" width="0.01" height="0.01"/><path class="cls-16" d="M175.35,20.59c.18.15.37.31.55.48l-.08-.05Z"/><path class="cls-17" d="M-158,85.6V19.24c19.62,23.67,39.81,46.85,63.58,66.34,36.9,30.25,79.63,52,119.77,77.37C93,205.77,101.66,274,112.07,346.81c-.22-.86-.41-1.71-.62-2.56l-.06-.2c-.22-.93-.45-1.85-.67-2.76-.26-1.08-.54-2.17-.81-3.25q-1-3.89-2-7.73c-.22-.91-.47-1.81-.71-2.72q-.7-2.71-1.46-5.4c-.26-.9-.49-1.78-.76-2.68-.71-2.55-1.46-5.08-2.23-7.59a1.13,1.13,0,0,0,0-.15c-.14-.49-.3-1-.46-1.46-.09-.32-.18-.64-.29-.95-.14-.48-.29-.94-.45-1.4-.25-.81-.5-1.6-.76-2.4l-.24-.72c-.08-.26-.17-.53-.27-.8-.14-.44-.29-.87-.44-1.31-.06-.18-.12-.38-.19-.57-.1-.34-.22-.68-.36-1-.58-1.71-1.18-3.42-1.8-5.1-.12-.32-.23-.63-.35-.93-.2-.54-.39-1.08-.6-1.61s-.39-1-.57-1.49c-.25-.66-.5-1.3-.77-1.94s-.42-1.06-.63-1.57-.4-1-.61-1.47-.32-.78-.49-1.17-.41-1-.62-1.47-.31-.72-.47-1.08-.31-.69-.45-1-.19-.42-.29-.63-.15-.33-.23-.51c-.3-.66-.59-1.32-.91-2s-.53-1.14-.8-1.7c-.45-1-.93-1.91-1.4-2.86-.33-.67-.67-1.34-1-2l-.91-1.74c-.32-.59-.64-1.17-1-1.75-.18-.36-.38-.7-.58-1.06s-.39-.7-.59-1.06c-.32-.55-.63-1.1-1-1.65s-.48-.81-.73-1.22-.5-.86-.77-1.28-.56-.93-.85-1.39-.62-1-.94-1.47c-.7-1.09-1.43-2.17-2.18-3.26-.16-.26-.34-.51-.53-.77-.46-.66-.92-1.32-1.4-2l-.75-1c-.33-.45-.67-.92-1-1.36s-.76-1-1.16-1.52l-.31-.4-.48-.61c-.61-.76-1.24-1.53-1.87-2.29-.21-.27-.43-.52-.66-.78-.66-.79-1.35-1.58-2-2.36l-.49-.56c-.08-.09-.17-.18-.25-.28-.42-.47-.86-.93-1.31-1.41s-1.16-1.24-1.78-1.86l-.57-.59-.4-.41c-.33-.35-.68-.68-1-1l-.83-.8c-.83-.81-1.69-1.61-2.58-2.41-.19-.19-.42-.39-.63-.58l-2.15-1.88c-.52-.45-1-.9-1.57-1.34l-.16-.13-1.45-1.18-.23-.18-.34-.28-.46-.35c-1.39-1.1-2.81-2.17-4.28-3.22l-.8-.59L45,223.65c-.38-.27-.77-.54-1.18-.81-.25-.17-.5-.34-.76-.5-1.09-.75-2.21-1.46-3.36-2.18-.33-.21-.66-.42-1-.6-.6-.39-1.2-.76-1.82-1.11s-1.34-.78-2-1.17c-.9-.51-1.8-1-2.72-1.51-.2-.12-.41-.23-.61-.33-.91-.49-1.83-1-2.77-1.46-35.49-18.11-72.86-32.93-106-55.33-1.16-.78-2.31-1.59-3.46-2.39-.9-.62-1.79-1.27-2.68-1.91-.74-.53-1.48-1.06-2.22-1.62-1.4-1-2.78-2.07-4.17-3.14l-2.81-2.19q-1.86-1.46-3.71-3c-1.48-1.21-3-2.43-4.42-3.68q-1.23-1-2.46-2.1c-1.33-1.12-2.65-2.28-4-3.45h0c-1.11-1-2.2-2-3.31-3l-.5-.44c-.93-.84-1.85-1.69-2.77-2.55a8.3,8.3,0,0,1-.69-.64l-2.56-2.38q-1.62-1.48-3.22-3c-1.06-1-2.11-2-3.16-3s-2.1-2-3.14-3.06c-2.15-2.09-4.27-4.2-6.41-6.32l-6.29-6.29C-145.49,98.18-151.72,91.84-158,85.6Z"/><path class="cls-18" d="M153,262.64c.55.6,1.11,1.19,1.69,1.77.17.18.35.38.55.57l.5.5c.73.75,1.48,1.49,2.23,2.23s1.3,1.24,2,1.86l.12.12.25.22.94.85c.38.36.76.7,1.16,1,.83.74,1.67,1.48,2.53,2.19.6.52,1.2,1,1.81,1.5.46.39.94.77,1.43,1.14.33.28.67.54,1,.8l.11.09a2.86,2.86,0,0,0,.3.22c.45.37.91.72,1.39,1.07l.47.36c.37.28.76.57,1.14.83.2.14.38.29.58.42q2.36,1.72,4.86,3.37l1,.67c.16.11.31.2.47.29.68.46,1.4.9,2.11,1.35l.71.43,1,.6c.21.14.45.27.67.41l.62.37.36.21.47.27a5.06,5.06,0,0,0,.44.26c.76.44,1.53.88,2.31,1.3s1.77,1,2.68,1.47c.43.24.88.47,1.33.7l.74.38.25.12.24.12,1,.54,1.07.51s.06,0,.09.06c.83.41,1.69.82,2.55,1.22.26.12.53.26.8.37.48.23.95.45,1.43.66l1.58.72c68.39,30.28,146.91,30,213.66,64.44,33.2,17.14,59.78,43,87,68.1H385.38c-88.87-76.59-162.64-17.85-182.17-69C189.38,324,176.43,289.13,153,262.64Z"/><path class="cls-2" d="M-158,162.6v-77c6.29,6.24,12.52,12.58,18.79,18.87l6.29,6.29c2.14,2.12,4.26,4.23,6.41,6.32q1.56,1.56,3.14,3.06c1,1,2.1,2,3.16,3s2.14,2.06,3.22,3c.21.22.44.42.65.62.63.59,1.26,1.18,1.91,1.76a8.3,8.3,0,0,0,.69.64c.92.86,1.84,1.71,2.77,2.55.17.15.34.3.5.46s.26.24.4.35c1,.88,1.94,1.75,2.91,2.59h0a183.36,183.36,0,0,0,12.49,28.53c28.59,51.84,80.13,86.12,111.64,136,28.52,45.15,18.58,85.37,7,129.67H-21.52c-12-23.73-19.7-49.3-22.56-72.53-7.34-59.88.28-114.25-52-156.24C-115.1,185.37-136.42,173.76-158,162.6Z"/><path class="cls-6" d="M233.26,90.28a224.4,224.4,0,0,1,18.33,24.38c10.59,16.33,19.94,33.47,30.11,50.05a383.81,383.81,0,0,0,30,42.38C354.27,259,412,283.15,472.21,308.62q22.5,9.5,44.88,19.22,17.68,7.64,35.33,15.39,12.9,5.65,25.86,11.3c3.23,1.41,12.89,3.66,15.11,6.68v12.42c-4.41-2.72-8.92-5.29-13.57-7.7s-9.2-4.55-13.87-6.6c-1.72-.76-3.46-1.5-5.19-2.21-1.35-.57-2.69-1.11-4-1.64s-2.8-1.11-4.21-1.64c-1.59-.59-3.17-1.19-4.75-1.75l-2.56-.91-3-1.05-1.27-.42c-1.1-.37-2.19-.74-3.29-1.09l-3.07-1-2-.64c-.77-.23-1.53-.47-2.3-.69-3-.93-6-1.8-9-2.65-1.49-.42-3-.83-4.48-1.22-3-.82-6-1.6-9-2.37-1.13-.29-2.26-.56-3.4-.84-13.17-3.26-26.48-6.15-39.78-9.07l-11.46-2.52-6.84-1.53q-5.13-1.17-10.24-2.38c-1.14-.26-2.27-.54-3.41-.82-2.25-.54-4.52-1.1-6.78-1.67-3.39-.86-6.79-1.73-10.15-2.66-.81-.22-1.63-.43-2.43-.66-2-.56-4.07-1.14-6.09-1.73-2.53-.73-5-1.5-7.55-2.28l-.75-.24-1-.31-2.28-.73-3.31-1.09-2.62-.89-.68-.24c-.33-.1-.65-.22-1-.34q-3.17-1.1-6.3-2.27c-.35-.13-.71-.26-1.05-.4l-1.52-.58-1.44-.55-1.81-.71-3.25-1.32c-.89-.37-1.79-.74-2.69-1.13-1.25-.52-2.49-1.07-3.75-1.62C288.33,267,280,197.88,251.5,126.86q-1.37-3.4-2.88-6.84c-.33-.76-.67-1.53-1-2.29s-.7-1.52-1.05-2.3c-.26-.58-.54-1.16-.81-1.76-.08-.17-.18-.34-.27-.52v0l-1.11-2.29c-.35-.77-.74-1.53-1.13-2.3s-.78-1.54-1.16-2.31-.8-1.53-1.19-2.3c-.21-.37-.41-.76-.61-1.15l-.62-1.14c-.18-.39-.4-.77-.61-1.15a.25.25,0,0,0,0-.07c-.61-1.12-1.23-2.26-1.88-3.38-.84-1.53-1.73-3.06-2.62-4.59a.26.26,0,0,1-.07-.11c-.13-.25-.28-.49-.42-.74Z"/><path class="cls-19" d="M246.56,115.43c-.35-.75-.72-1.52-1.08-2.28.09.18.19.35.27.52C246,114.27,246.3,114.85,246.56,115.43Z"/><path class="cls-20" d="M238.42,99.34,237.15,97c.65,1.12,1.27,2.26,1.88,3.38a.25.25,0,0,1,0,.07c.21.38.43.76.61,1.15C239.25,100.87,238.84,100.1,238.42,99.34Z"/><path class="cls-21" d="M233.17,90.17s0,0,.06.06,0,0,0,0L234,91.6c.14.25.29.49.42.74C234,91.62,233.6,90.89,233.17,90.17Z"/><path class="cls-22" d="M146.31,226.28c5.46,8.49,11.14,16.86,18.77,25-4.51,1.59-12,2.47-17.69,2.88-1.61.12-3,.22-4.26.19a131.2,131.2,0,0,1-15.78-23.58l-3.45.25-2.54,24.2a60.85,60.85,0,0,1-10.16,1.54,64.78,64.78,0,0,1-10.51-.05l5.75-56.54,1.78-17a139.93,139.93,0,0,1,25.22-4.24c20.22-1.45,28.83,5.9,29.7,18C164.14,210.79,157.35,220.86,146.31,226.28ZM125.57,214l6.55-.47c7.12-.51,10.17-4.65,9.75-10.51-.33-4.6-3.06-7.18-8.8-6.76-1.84.13-3.79.27-5.74.53Z"/><path class="cls-22" d="M169.73,251.73l7.59-74.45a61.16,61.16,0,0,1,10.17-1.54,65.88,65.88,0,0,1,10.51,0l-7.71,74.46a59.34,59.34,0,0,1-10.16,1.54A63.45,63.45,0,0,1,169.73,251.73Z"/><path class="cls-22" d="M199.67,242.54c1-7.23,5.11-14.11,10.52-17.5,4.28,3.27,12.19,5.7,20.69,5.09,6.55-.47,8.16-2.2,7.94-5.19-.55-7.69-30.53-.69-32.31-25.39-1.11-15.51,11-27.35,30.62-28.76,13.56-1,22.48,2.78,26.05,5.87-1,6.42-4.45,13.48-10.42,17.26-3.74-2.27-10.22-4.12-17.23-3.61-6.21.44-8.88,1.79-8.7,4.32.5,7,30.75.44,32.55,25.49,1.14,16-10.82,27.8-29.89,29.17C213.63,250.43,204.33,246.36,199.67,242.54Z"/><path class="cls-22" d="M292.92,187.11l-1.05,9.43,24.46-1.76c.86,7.1.25,13-1.75,17.45L290.11,214l-1.18,10.82,28.49-2.05c1.07,8.47.48,13.13-1.91,18.5l-49.05,3.52,7.69-74.68,48.13-3.46c1.25,7.76.57,12.66-2,18.51Z"/></svg>